<svg width="126" height="57" viewBox="0 0 126 57" fill="none" xmlns="http://www.w3.org/2000/svg">
<path d="M21.8047 22.5738C21.8047 21.5012 21.9854 20.5493 22.35 19.7178C22.7146 18.8864 23.2163 18.1848 23.8551 17.6161C24.494 17.0474 25.2668 16.6147 26.1736 16.318C27.0773 16.0212 28.0713 15.876 29.1527 15.876C30.477 15.876 31.5085 16.0182 32.247 16.3025C32.9856 16.5869 33.5216 16.8929 33.8519 17.2236C34.0513 17.443 34.204 17.6717 34.3162 17.9128C34.4253 18.1539 34.4813 18.4383 34.4813 18.7659C34.4813 19.0935 34.4315 19.4026 34.3318 19.6869C34.232 19.9713 34.1105 20.2247 33.9672 20.4411C33.8238 20.6605 33.6867 20.846 33.5527 21.0005C33.4187 21.1551 33.3221 21.2633 33.2536 21.3282C32.8765 21.152 32.4247 20.9882 31.8949 20.8367C31.3652 20.6853 30.7793 20.608 30.1405 20.608C29.3022 20.608 28.5886 20.8491 28.0059 21.3313C27.4201 21.8134 27.1271 22.6108 27.1271 23.7297V33.0887H21.8047V22.5738Z" fill="#F4F4F4"/>
<path d="M36.8965 11.8357C36.8965 11.0042 37.1769 10.3026 37.741 9.73392C38.305 9.16521 39.003 8.88086 39.8444 8.88086C40.6827 8.88086 41.39 9.16521 41.9634 9.73392C42.5368 10.3026 42.8235 11.0042 42.8235 11.8357C42.8235 12.6671 42.5368 13.3625 41.9634 13.922C41.39 14.4814 40.6827 14.7596 39.8444 14.7596C39.0061 14.7596 38.305 14.4814 37.741 13.922C37.1769 13.3625 36.8965 12.6671 36.8965 11.8357ZM37.1956 18.6633C37.1956 17.8102 37.4481 17.2075 37.956 16.8582C38.4639 16.509 39.137 16.3328 39.9753 16.3328C40.5705 16.3328 41.1127 16.4039 41.5988 16.5461C42.0849 16.6882 42.3934 16.781 42.5243 16.8242V33.0788H37.1925V18.6633H37.1956Z" fill="#F4F4F4"/>
<path d="M51.4988 33.0819C50.8132 31.8796 50.1463 30.6402 49.4951 29.373C48.8438 28.1026 48.2548 26.9158 47.7251 25.8093C47.1953 24.7028 46.7528 23.7631 46.4007 22.9843C46.0485 22.2085 45.8273 21.7109 45.74 21.4914C45.5624 21.0525 45.3692 20.5611 45.1604 20.014C44.9517 19.4669 44.8457 18.9755 44.8457 18.5366C44.8457 17.9246 45.067 17.4054 45.5063 16.9757C45.9488 16.5492 46.6095 16.3359 47.4945 16.3359C48.2018 16.3359 48.7752 16.407 49.2177 16.5492C49.6602 16.6914 49.9126 16.7841 49.9781 16.8274C50.352 17.8999 50.7509 18.9848 51.1716 20.0789C51.5891 21.1731 51.9942 22.1868 52.3806 23.1172C52.7671 24.0475 53.113 24.8697 53.4246 25.5805C53.7331 26.2914 53.9543 26.7921 54.0852 27.0765C54.2192 26.7921 54.428 26.3038 54.7147 25.6145C55.0014 24.9253 55.3161 24.1588 55.6589 23.315C56.0017 22.4712 56.3413 21.6305 56.6841 20.7867C57.0269 19.9429 57.3198 19.2258 57.5629 18.6355C57.6938 18.3079 57.8433 18.0019 58.0085 17.7144C58.1736 17.4301 58.3731 17.1828 58.6037 16.9757C58.8343 16.7687 59.1179 16.6079 59.4482 16.4998C59.7785 16.3916 60.1867 16.3359 60.6728 16.3359C61.1153 16.3359 61.5111 16.3792 61.8663 16.4688C62.2185 16.5554 62.5301 16.6543 62.795 16.7656C63.0598 16.8768 63.2686 16.9788 63.4244 17.0777C63.5802 17.1766 63.6768 17.2385 63.7236 17.257C63.6363 17.6495 63.4244 18.2491 63.0941 19.0466C62.7638 19.8471 62.3711 20.7589 61.9193 21.7881C61.4675 22.8174 60.9751 23.8961 60.4453 25.0242C59.9156 26.1523 59.3952 27.2403 58.8904 28.2912C58.3824 29.3421 57.9088 30.2878 57.4663 31.1316C57.0238 31.9754 56.681 32.6245 56.441 33.085H51.4988V33.0819Z" fill="#F4F4F4"/>
<path d="M65.2031 24.7056C65.2031 23.4353 65.4462 22.2639 65.9323 21.1913C66.4184 20.1188 67.0853 19.1885 67.936 18.4004C68.7867 17.6122 69.7746 16.994 70.8995 16.5459C72.0245 16.0977 73.2398 15.8721 74.5423 15.8721C75.8231 15.8721 77.0322 16.0977 78.1665 16.5459C79.3039 16.994 80.2979 17.6122 81.1455 18.4004C81.9963 19.1885 82.6631 20.1188 83.1493 21.1913C83.6354 22.2639 83.8784 23.4353 83.8784 24.7056C83.8784 25.9759 83.6354 27.1473 83.1493 28.2198C82.6631 29.2924 81.9963 30.2227 81.1455 31.0108C80.2948 31.799 79.3008 32.4172 78.1665 32.8653C77.0291 33.3135 75.82 33.5391 74.5423 33.5391C73.2398 33.5391 72.0245 33.3135 70.8995 32.8653C69.7746 32.4172 68.7867 31.799 67.936 31.0108C67.0853 30.2227 66.4184 29.2924 65.9323 28.2198C65.4462 27.1473 65.2031 25.9759 65.2031 24.7056ZM74.5392 28.8133C75.0908 28.8133 75.605 28.7082 76.0786 28.5011C76.5523 28.294 76.9667 28.0097 77.3189 27.648C77.671 27.2864 77.9421 26.8537 78.1291 26.3499C78.316 25.8461 78.4095 25.299 78.4095 24.7087C78.4095 24.1183 78.316 23.5713 78.1291 23.0675C77.9421 22.5637 77.671 22.131 77.3189 21.7693C76.9667 21.4077 76.5523 21.1234 76.0786 20.9163C75.605 20.7092 75.0908 20.6041 74.5392 20.6041C73.9658 20.6041 73.4454 20.7092 72.9842 20.9163C72.5199 21.1234 72.1117 21.4077 71.7596 21.7693C71.4075 22.131 71.1363 22.5637 70.9494 23.0675C70.7624 23.5713 70.6689 24.1183 70.6689 24.7087C70.6689 25.299 70.7624 25.8461 70.9494 26.3499C71.1363 26.8537 71.4075 27.2864 71.7596 27.648C72.1117 28.0097 72.5199 28.294 72.9842 28.5011C73.4486 28.7082 73.9658 28.8133 74.5392 28.8133Z" fill="#F4F4F4"/>
<path d="M92.0202 33.0819C91.3347 31.8796 90.6678 30.6402 90.0165 29.373C89.3653 28.1026 88.7763 26.9158 88.2465 25.8093C87.7168 24.7028 87.2743 23.7631 86.9222 22.9843C86.57 22.2085 86.3488 21.7109 86.2615 21.4914C86.0839 21.0525 85.8907 20.5611 85.6819 20.014C85.4731 19.4669 85.3672 18.9755 85.3672 18.5366C85.3672 17.9246 85.5884 17.4054 86.0278 16.9757C86.4703 16.5492 87.131 16.3359 88.0159 16.3359C88.7233 16.3359 89.2967 16.407 89.7392 16.5492C90.1817 16.6914 90.4341 16.7841 90.4996 16.8274C90.8735 17.8999 91.2724 18.9848 91.693 20.0789C92.1106 21.1731 92.5157 22.1868 92.9021 23.1172C93.2885 24.0475 93.6344 24.8697 93.9461 25.5805C94.2546 26.2914 94.4758 26.7921 94.6067 27.0765C94.7407 26.7921 94.9495 26.3038 95.2362 25.6145C95.5228 24.9253 95.8376 24.1588 96.1804 23.315C96.5231 22.4712 96.8628 21.6305 97.2056 20.7867C97.5484 19.9429 97.8413 19.2258 98.0844 18.6355C98.2152 18.3079 98.3648 18.0019 98.53 17.7144C98.6951 17.4301 98.8946 17.1828 99.1252 16.9757C99.3558 16.7687 99.6393 16.6079 99.9696 16.4998C100.3 16.3916 100.708 16.3359 101.194 16.3359C101.637 16.3359 102.033 16.3792 102.388 16.4688C102.74 16.5554 103.052 16.6543 103.316 16.7656C103.581 16.8737 103.79 16.9788 103.946 17.0777C104.102 17.1766 104.198 17.2385 104.245 17.257C104.158 17.6495 103.946 18.2491 103.616 19.0466C103.285 19.8471 102.893 20.7589 102.441 21.7881C101.989 22.8174 101.497 23.8961 100.967 25.0242C100.437 26.1523 99.9167 27.2403 99.4118 28.2912C98.9039 29.3421 98.4303 30.2878 97.9878 31.1316C97.5453 31.9754 97.2025 32.6245 96.9625 33.085H92.0202V33.0819Z" fill="#F4F4F4"/>
<path d="M105.729 24.7056C105.729 23.4353 105.972 22.2639 106.458 21.1913C106.944 20.1188 107.611 19.1885 108.461 18.4004C109.312 17.6122 110.3 16.994 111.425 16.5459C112.55 16.0977 113.765 15.8721 115.068 15.8721C116.348 15.8721 117.558 16.0977 118.692 16.5459C119.829 16.994 120.823 17.6122 121.671 18.4004C122.522 19.1885 123.189 20.1188 123.675 21.1913C124.161 22.2639 124.404 23.4353 124.404 24.7056C124.404 25.9759 124.161 27.1473 123.675 28.2198C123.189 29.2924 122.522 30.2227 121.671 31.0108C120.82 31.799 119.826 32.4172 118.692 32.8653C117.554 33.3135 116.345 33.5391 115.068 33.5391C113.765 33.5391 112.55 33.3135 111.425 32.8653C110.3 32.4172 109.312 31.799 108.461 31.0108C107.611 30.2227 106.944 29.2924 106.458 28.2198C105.972 27.1473 105.729 25.9759 105.729 24.7056ZM115.065 28.8133C115.616 28.8133 116.13 28.7082 116.604 28.5011C117.078 28.294 117.492 28.0097 117.844 27.648C118.196 27.2864 118.467 26.8537 118.654 26.3499C118.841 25.8461 118.935 25.299 118.935 24.7087C118.935 24.1183 118.841 23.5713 118.654 23.0675C118.467 22.5637 118.196 22.131 117.844 21.7693C117.492 21.4077 117.078 21.1234 116.604 20.9163C116.13 20.7092 115.616 20.6041 115.065 20.6041C114.491 20.6041 113.971 20.7092 113.51 20.9163C113.045 21.1234 112.637 21.4077 112.285 21.7693C111.933 22.131 111.662 22.5637 111.475 23.0675C111.288 23.5713 111.194 24.1183 111.194 24.7087C111.194 25.299 111.288 25.8461 111.475 26.3499C111.662 26.8537 111.933 27.2864 112.285 27.648C112.637 28.0097 113.045 28.294 113.51 28.5011C113.971 28.7082 114.491 28.8133 115.065 28.8133Z" fill="#F4F4F4"/>
<path d="M126.001 18.8521C122.807 12.1141 116.811 11.8112 113.801 11.292C111.031 10.816 107.893 10.2751 103.857 8.18572C97.4939 4.89401 89.1394 4.05949 80.9375 5.89543C75.5123 7.11012 71.8788 8.63389 69.3173 11.1684C68.8966 11.5856 66.6062 13.7708 66.3195 14.0335C63.1503 16.9203 61.1902 13.4092 61.1934 12.5778C61.4458 12.1698 61.748 11.7494 62.0846 11.326C63.8702 9.06351 64.7894 8.05591 68.1612 5.62653C72.368 2.59445 78.242 1.43849 79.7627 1.0985C85.2971 -0.137821 96.1009 -1.42669 106.31 3.85241C109.619 5.56472 112.093 5.99125 114.714 6.44251C115.34 6.55068 115.97 6.65886 116.612 6.78559C122.071 7.8581 126.001 12.4387 126.001 17.7672V18.8521Z" fill="#FF5D00"/>
<path d="M18.3326 31.4875V23.9522V22.0915V6.63746C18.2017 6.59419 17.8963 6.50147 17.4227 6.35929C16.949 6.21711 15.1853 5.78749 13.7985 7.76561C13.0164 8.88139 13.0382 10.3588 13.0382 11.2149V17.6809C12.6393 17.2884 12.0379 16.8866 11.2339 16.4817C10.4268 16.0768 9.40784 15.8728 8.17071 15.8728C7.04576 15.8728 5.98626 16.0861 4.9922 16.5126C3.99813 16.9391 3.13183 17.5356 2.39329 18.3022C1.65476 19.0687 1.06891 19.9928 0.638878 21.0777C0.258703 22.0297 0.00940795 23.0806 5.93774e-05 24.2272C-0.00928919 25.3307 1.08761 25.5377 1.62983 25.5068C3.26271 25.411 4.21315 25.1328 5.02959 23.8533C5.43158 23.2258 5.45028 23.2073 5.45339 23.2042C5.63101 22.7746 6.20439 22.1749 6.52848 21.8319C7.2452 21.0746 8.15513 20.6975 9.26138 20.6975C9.81294 20.6975 10.3209 20.8026 10.7852 21.0097C11.2495 21.2168 11.6515 21.5012 11.9943 21.8628C12.3371 22.2244 12.6019 22.6509 12.7889 23.1424C12.9759 23.6338 13.0694 24.1654 13.0694 24.7341C13.0694 25.9612 12.711 26.9224 11.9943 27.624C11.2776 28.3257 10.3676 28.6749 9.26138 28.6749C8.15824 28.6749 7.24832 28.3133 6.52848 27.59C6.42876 27.488 5.86161 27.0399 5.77436 26.9317C4.71485 26.1219 3.42475 25.4172 1.7981 25.6799C0.766642 25.8468 0.168334 26.8915 0.511114 27.8713C0.567206 28.0258 0.623297 28.1742 0.685621 28.3195C1.14993 29.4136 1.78875 30.344 2.60519 31.1105C3.42164 31.877 4.38765 32.4735 5.50325 32.9C6.61885 33.3266 7.82481 33.5398 9.12738 33.5398C10.7166 33.5398 12.1625 33.2555 13.4651 32.6868C13.7206 32.5755 13.9637 32.4519 14.1974 32.319V32.3221C14.7147 33.4626 17.4351 33.512 18.5009 33.0793C18.3326 32.5539 18.3326 31.4875 18.3326 31.4875Z" fill="#FF5D00"/>
<path d="M24.7977 52.583C24.6607 52.583 24.5479 52.5387 24.4593 52.4501C24.3706 52.3614 24.3263 52.2486 24.3263 52.1116V43.615C24.3263 43.478 24.3706 43.3652 24.4593 43.2765C24.5479 43.1879 24.6607 43.1436 24.7977 43.1436H26.9732C27.6662 43.1436 28.2987 43.2604 28.8708 43.4941C29.4509 43.7197 29.9505 44.046 30.3695 44.4731C30.7885 44.8921 31.1108 45.3876 31.3364 45.9597C31.57 46.5318 31.6869 47.1643 31.6869 47.8573C31.6869 48.5502 31.57 49.1867 31.3364 49.7669C31.1108 50.339 30.7885 50.8385 30.3695 51.2656C29.9505 51.6846 29.4509 52.0109 28.8708 52.2446C28.2987 52.4702 27.6662 52.583 26.9732 52.583H24.7977ZM25.269 51.737H26.9732C27.7145 51.737 28.3672 51.5718 28.9312 51.2414C29.5033 50.903 29.9505 50.4437 30.2728 49.8636C30.5951 49.2754 30.7562 48.6066 30.7562 47.8573C30.7562 47.1079 30.5951 46.4432 30.2728 45.863C29.9505 45.2748 29.5033 44.8155 28.9312 44.4852C28.3672 44.1548 27.7145 43.9896 26.9732 43.9896H25.269V51.737ZM34.2798 52.583C34.1428 52.583 34.03 52.5387 33.9414 52.4501C33.8527 52.3614 33.8084 52.2486 33.8084 52.1116V43.615C33.8084 43.478 33.8527 43.3652 33.9414 43.2765C34.03 43.1879 34.1428 43.1436 34.2798 43.1436H36.5399C37.1281 43.1436 37.6519 43.2685 38.1111 43.5183C38.5704 43.76 38.929 44.1024 39.1868 44.5456C39.4527 44.9807 39.5857 45.4843 39.5857 46.0564C39.5857 46.6043 39.4527 47.0918 39.1868 47.5188C38.929 47.9459 38.5704 48.2803 38.1111 48.522C37.6519 48.7637 37.1281 48.8846 36.5399 48.8846H34.7511V52.1116C34.7511 52.2486 34.7068 52.3614 34.6182 52.4501C34.5296 52.5387 34.4168 52.583 34.2798 52.583ZM39.3319 52.583C39.2271 52.583 39.1425 52.5629 39.0781 52.5226C39.0217 52.4823 38.9693 52.4219 38.9209 52.3413L36.6004 48.6429L37.5431 48.4011L39.7065 51.8578C39.8274 52.0512 39.8476 52.2204 39.767 52.3655C39.6945 52.5105 39.5494 52.583 39.3319 52.583ZM34.7511 47.9781H36.5399C36.9509 47.9781 37.3134 47.8975 37.6277 47.7364C37.95 47.5672 38.2038 47.3375 38.3891 47.0475C38.5745 46.7574 38.6671 46.427 38.6671 46.0564C38.6671 45.6616 38.5745 45.3151 38.3891 45.017C38.2038 44.7108 37.95 44.4731 37.6277 44.3039C37.3134 44.1347 36.9509 44.0501 36.5399 44.0501H34.7511V47.9781ZM41.9324 52.583C41.7954 52.583 41.6826 52.5387 41.594 52.4501C41.5054 52.3614 41.461 52.2486 41.461 52.1116V43.615C41.461 43.478 41.5054 43.3652 41.594 43.2765C41.6826 43.1879 41.7954 43.1436 41.9324 43.1436C42.0694 43.1436 42.1822 43.1879 42.2708 43.2765C42.3595 43.3652 42.4038 43.478 42.4038 43.615V52.1116C42.4038 52.2486 42.3595 52.3614 42.2708 52.4501C42.1822 52.5387 42.0694 52.583 41.9324 52.583ZM48.1366 52.583C47.9351 52.583 47.7901 52.4823 47.7015 52.2808L44.1118 43.8808C44.0232 43.6552 44.0151 43.478 44.0876 43.3491C44.1682 43.2121 44.3052 43.1436 44.4986 43.1436C44.7 43.1436 44.8451 43.2443 44.9337 43.4457L48.2695 51.4227H48.0036L51.3274 43.4699C51.3757 43.3491 51.4361 43.2644 51.5087 43.2161C51.5812 43.1678 51.6779 43.1436 51.7987 43.1436C51.9841 43.1436 52.1089 43.2161 52.1734 43.3611C52.2379 43.4981 52.2338 43.6552 52.1613 43.8325L48.5596 52.2808C48.5112 52.3937 48.4508 52.4742 48.3783 52.5226C48.3058 52.5629 48.2252 52.583 48.1366 52.583ZM54.3105 52.583C54.1735 52.583 54.0607 52.5387 53.9721 52.4501C53.8835 52.3614 53.8391 52.2486 53.8391 52.1116V43.615C53.8391 43.478 53.8835 43.3652 53.9721 43.2765C54.0607 43.1879 54.1735 43.1436 54.3105 43.1436H59.979C60.1079 43.1436 60.2167 43.1879 60.3053 43.2765C60.402 43.3571 60.4504 43.4659 60.4504 43.6029C60.4504 43.7237 60.402 43.8285 60.3053 43.9171C60.2167 44.0057 60.1079 44.0501 59.979 44.0501H54.7819V47.3859H58.5649C58.7019 47.3859 58.8147 47.4302 58.9033 47.5188C58.992 47.6075 59.0363 47.7162 59.0363 47.8452C59.0363 47.9741 58.992 48.0829 58.9033 48.1715C58.8147 48.2601 58.7019 48.3044 58.5649 48.3044H54.7819V51.6765H59.979C60.1079 51.6765 60.2167 51.7208 60.3053 51.8095C60.402 51.8981 60.4504 52.0029 60.4504 52.1237C60.4504 52.2607 60.402 52.3735 60.3053 52.4621C60.2167 52.5427 60.1079 52.583 59.979 52.583H54.3105ZM66.5824 52.583C66.4454 52.583 66.3326 52.5387 66.244 52.4501C66.1553 52.3614 66.111 52.2486 66.111 52.1116V43.615C66.111 43.478 66.1553 43.3652 66.244 43.2765C66.3326 43.1879 66.4454 43.1436 66.5824 43.1436C66.7194 43.1436 66.8322 43.1879 66.9208 43.2765C67.0094 43.3652 67.0538 43.478 67.0538 43.615V52.1116C67.0538 52.2486 67.0094 52.3614 66.9208 52.4501C66.8322 52.5387 66.7194 52.583 66.5824 52.583ZM72.3998 52.583C72.2709 52.583 72.1581 52.5387 72.0614 52.4501C71.9727 52.3534 71.9284 52.2406 71.9284 52.1116V43.1436H72.8711V52.1116C72.8711 52.2406 72.8268 52.3534 72.7382 52.4501C72.6496 52.5387 72.5368 52.583 72.3998 52.583ZM69.064 44.0017C68.935 44.0017 68.8303 43.9614 68.7497 43.8808C68.6691 43.8003 68.6288 43.6996 68.6288 43.5787C68.6288 43.4498 68.6691 43.345 68.7497 43.2644C68.8303 43.1839 68.935 43.1436 69.064 43.1436H75.7477C75.8766 43.1436 75.9814 43.1839 76.0619 43.2644C76.1425 43.345 76.1828 43.4498 76.1828 43.5787C76.1828 43.6996 76.1425 43.8003 76.0619 43.8808C75.9814 43.9614 75.8766 44.0017 75.7477 44.0017H69.064ZM81.9509 52.583C81.8139 52.583 81.7011 52.5387 81.6125 52.4501C81.5239 52.3614 81.4795 52.2486 81.4795 52.1116V43.615C81.4795 43.478 81.5239 43.3652 81.6125 43.2765C81.7011 43.1879 81.8139 43.1436 81.9509 43.1436H87.6194C87.7483 43.1436 87.8571 43.1879 87.9457 43.2765C88.0424 43.3571 88.0908 43.4659 88.0908 43.6029C88.0908 43.7237 88.0424 43.8285 87.9457 43.9171C87.8571 44.0057 87.7483 44.0501 87.6194 44.0501H82.4223V47.3859H86.2053C86.3423 47.3859 86.4551 47.4302 86.5437 47.5188C86.6324 47.6075 86.6767 47.7162 86.6767 47.8452C86.6767 47.9741 86.6324 48.0829 86.5437 48.1715C86.4551 48.2601 86.3423 48.3044 86.2053 48.3044H82.4223V51.6765H87.6194C87.7483 51.6765 87.8571 51.7208 87.9457 51.8095C88.0424 51.8981 88.0908 52.0029 88.0908 52.1237C88.0908 52.2607 88.0424 52.3735 87.9457 52.4621C87.8571 52.5427 87.7483 52.583 87.6194 52.583H81.9509ZM89.5095 52.583C89.3242 52.583 89.1912 52.5065 89.1106 52.3534C89.0301 52.2003 89.022 52.0512 89.0865 51.9062L92.6399 43.4699C92.7285 43.2524 92.8816 43.1436 93.0991 43.1436C93.3086 43.1436 93.4577 43.2524 93.5463 43.4699L97.1118 51.9183C97.1843 52.0714 97.1722 52.2204 97.0755 52.3655C96.9869 52.5105 96.858 52.583 96.6888 52.583C96.5921 52.583 96.5034 52.5588 96.4229 52.5105C96.3504 52.4621 96.2899 52.3896 96.2416 52.2929L92.9178 44.2314H93.2925L89.9446 52.2929C89.9043 52.3896 89.8439 52.4621 89.7633 52.5105C89.6908 52.5588 89.6062 52.583 89.5095 52.583ZM90.3072 50.335L90.6698 49.5252H95.5768L95.9394 50.335H90.3072ZM101.609 52.7039C101.094 52.7039 100.614 52.6314 100.171 52.4863C99.736 52.3332 99.3573 52.1197 99.035 51.8457C98.7127 51.5718 98.467 51.2535 98.2978 50.8909C98.2333 50.762 98.2293 50.6452 98.2857 50.5404C98.3501 50.4276 98.4549 50.3511 98.5999 50.3108C98.7127 50.2785 98.8215 50.2906 98.9263 50.347C99.0391 50.4034 99.1237 50.488 99.1801 50.6008C99.3009 50.8345 99.4782 51.044 99.7119 51.2293C99.9455 51.4147 100.224 51.5597 100.546 51.6644C100.868 51.7611 101.223 51.8095 101.609 51.8095C102.036 51.8095 102.415 51.741 102.746 51.604C103.076 51.459 103.334 51.2535 103.519 50.9876C103.712 50.7137 103.809 50.3833 103.809 49.9965C103.809 49.505 103.628 49.082 103.265 48.7275C102.903 48.3729 102.335 48.1473 101.561 48.0506C100.618 47.9378 99.8811 47.6478 99.3493 47.1804C98.8175 46.705 98.5516 46.1249 98.5516 45.44C98.5516 44.9485 98.6805 44.5214 98.9383 44.1588C99.2042 43.7962 99.5668 43.5183 100.026 43.3249C100.485 43.1234 101.013 43.0227 101.609 43.0227C102.053 43.0227 102.455 43.0952 102.818 43.2403C103.181 43.3773 103.495 43.5626 103.761 43.7962C104.035 44.0219 104.256 44.2716 104.426 44.5456C104.506 44.6745 104.53 44.7994 104.498 44.9203C104.474 45.0411 104.405 45.1338 104.293 45.1983C104.172 45.2547 104.047 45.2627 103.918 45.2224C103.797 45.1821 103.704 45.1056 103.64 44.9928C103.519 44.8075 103.366 44.6342 103.181 44.4731C103.003 44.3039 102.786 44.1709 102.528 44.0742C102.27 43.9775 101.96 43.9252 101.597 43.9171C100.961 43.9171 100.449 44.0541 100.062 44.328C99.6756 44.5939 99.4822 44.9847 99.4822 45.5004C99.4822 45.7744 99.5547 46.0282 99.6998 46.2619C99.8448 46.4875 100.083 46.6849 100.413 46.8541C100.751 47.0152 101.203 47.1361 101.767 47.2167C102.774 47.3617 103.519 47.6719 104.003 48.1473C104.494 48.6147 104.74 49.227 104.74 49.9844C104.74 50.4196 104.659 50.8063 104.498 51.1447C104.345 51.4832 104.123 51.7692 103.833 52.0029C103.551 52.2285 103.217 52.4017 102.83 52.5226C102.451 52.6434 102.045 52.7039 101.609 52.7039ZM109.234 52.583C109.105 52.583 108.992 52.5387 108.895 52.4501C108.807 52.3534 108.763 52.2406 108.763 52.1116V49.0901L105.475 43.8808C105.394 43.76 105.362 43.6432 105.378 43.5303C105.403 43.4175 105.455 43.3249 105.535 43.2524C105.616 43.1798 105.717 43.1436 105.838 43.1436C105.934 43.1436 106.011 43.1637 106.067 43.204C106.132 43.2443 106.188 43.3007 106.237 43.3732L109.5 48.6308H108.992L112.243 43.3974C112.3 43.3088 112.36 43.2443 112.425 43.204C112.497 43.1637 112.582 43.1436 112.679 43.1436C112.791 43.1436 112.884 43.1839 112.957 43.2644C113.037 43.337 113.081 43.4296 113.089 43.5424C113.106 43.6552 113.077 43.768 113.005 43.8808L109.705 49.0901V52.1116C109.705 52.2406 109.657 52.3534 109.56 52.4501C109.472 52.5387 109.363 52.583 109.234 52.583Z" fill="#FF5D00"/>
</svg>
